<?xml version="1.0" standalone="no"?>
<svg viewBox="0 0 200 200" xmlns="http://www.w3.org/2000/svg">
  <path fill="#F2F4F8" d="M40.2,-60.4C53.3,-54.2,66,-45,65.7,-33.6C65.3,-22.1,52,-8.3,44.9,2.9C37.8,14.1,36.8,22.6,32.7,29.6C28.6,36.7,21.3,42.2,12.4,46.8C3.6,51.5,-6.9,55.2,-14.7,52C-22.5,48.8,-27.8,38.7,-36.3,30.5C-44.9,22.4,-56.8,16.1,-62.4,6.3C-68,-3.6,-67.3,-17,-59.7,-24.6C-52.1,-32.2,-37.6,-34,-26.5,-41.2C-15.4,-48.4,-7.7,-60.9,2.9,-65.4C13.6,-70,27.1,-66.6,40.2,-60.4Z" transform="translate(100 100)" />
</svg>
